<svg width="327" height="327" viewBox="0 0 327 327" fill="none" xmlns="http://www.w3.org/2000/svg">
<rect width="327" height="327" rx="163.5" fill="#013E6C"/>
<path fill-rule="evenodd" clip-rule="evenodd" d="M0.000443951 163.115C0.000148037 163.243 0 163.372 0 163.5C0 253.799 73.2014 327 163.5 327C253.799 327 327 253.799 327 163.5C327 163.372 327 163.243 327 163.115C280.13 132.076 223.926 114 163.5 114C103.074 114 46.8704 132.076 0.000443951 163.115Z" fill="#E3CA77"/>
<path d="M56.384 85.564L103.184 82.6C104.536 82.6 105.836 83.9 107.084 86.5C107.084 90.452 102.508 92.428 93.356 92.428L66.056 93.988L65.432 94.3C68.032 111.252 69.332 143.44 69.332 190.864C68.812 195.44 67.148 197.728 64.34 197.728C61.636 197.728 60.076 195.648 59.66 191.488V155.296C59.66 131.168 58.568 111.044 56.384 94.924C37.768 96.692 28.46 98.772 28.46 101.164L27.056 101.788C23.832 100.852 22.22 99.188 22.22 96.796C22.22 91.076 33.608 87.332 56.384 85.564ZM112.826 122.536C119.378 122.536 123.278 127.112 124.526 136.264V137.668C124.526 147.756 119.326 157.012 108.926 165.436C114.958 171.364 125.514 174.328 140.594 174.328C142.882 175.056 144.026 176.668 144.026 179.164C144.026 181.972 142.206 183.376 138.566 183.376C128.374 183.376 117.662 180.776 106.43 175.576V180.1C106.43 190.812 104.142 196.168 99.5655 196.168C96.3415 196.168 94.7295 189.98 94.7295 177.604V165.436L94.2615 161.068L95.3535 156.076L94.2615 141.1V140.476C94.2615 137.668 95.7175 135.744 98.6295 134.704C102.686 126.592 107.418 122.536 112.826 122.536ZM105.026 156.7C108.042 156.7 111.422 151.292 115.166 140.476V133.768L113.294 131.74H111.89C107.314 134.86 105.026 143.18 105.026 156.7ZM151.082 102.724C155.034 103.556 157.01 105.324 157.01 108.028C155.97 110.94 154.306 112.396 152.018 112.396C148.17 111.668 146.246 109.744 146.246 106.624C147.286 104.024 148.898 102.724 151.082 102.724ZM157.01 124.564C158.674 124.564 160.078 126.072 161.222 129.088L159.818 140.164V147.496C159.818 156.024 161.274 167.204 164.186 181.036C163.146 183.012 161.378 184 158.882 184C154.618 184 151.81 171.52 150.458 146.56V141.1C150.458 130.076 152.642 124.564 157.01 124.564ZM191.402 137.668C202.426 137.668 208.926 144.584 210.902 158.416C210.902 170.688 205.182 179.476 193.742 184.78C192.494 185.404 190.778 185.716 188.594 185.716H187.502L184.07 185.404V185.716L184.694 227.368C183.966 230.592 182.302 232.204 179.702 232.204C176.79 231.268 175.334 229.76 175.334 227.68L173.93 142.816C173.93 140.112 175.542 138.708 178.766 138.604L182.042 140.008C184.954 138.448 188.074 137.668 191.402 137.668ZM183.602 154.204L183.134 159.04L183.602 175.576L187.97 176.668C194.938 176.668 199.462 171.572 201.542 161.38V159.04C200.814 150.824 197.902 146.716 192.806 146.716H190.466C185.89 146.716 183.602 149.212 183.602 154.204ZM237.41 137.668C248.434 137.668 254.934 144.584 256.91 158.416C256.91 170.688 251.19 179.476 239.75 184.78C238.502 185.404 236.786 185.716 234.602 185.716H233.51L230.078 185.404V185.716L230.702 227.368C229.974 230.592 228.31 232.204 225.71 232.204C222.798 231.268 221.342 229.76 221.342 227.68L219.938 142.816C219.938 140.112 221.55 138.708 224.774 138.604L228.05 140.008C230.962 138.448 234.082 137.668 237.41 137.668ZM229.61 154.204L229.142 159.04L229.61 175.576L233.978 176.668C240.946 176.668 245.47 171.572 247.55 161.38V159.04C246.822 150.824 243.91 146.716 238.814 146.716H236.474C231.898 146.716 229.61 149.212 229.61 154.204ZM269.222 137.2C272.862 137.2 275.358 145.208 276.71 161.224C278.478 168.608 279.778 172.3 280.61 172.3H281.546C284.146 165.748 285.446 159.248 285.446 152.8L284.51 142.036C285.654 139.228 287.266 137.824 289.346 137.824C293.194 137.824 295.118 144.636 295.118 158.26C297.406 172.404 298.55 185.56 298.55 197.728V205.06C298.55 227.42 292.206 242.5 279.518 250.3L276.086 250.924C270.158 250.924 264.646 245.412 259.55 234.388L258.146 225.028V224.56C258.146 217.696 260.07 214.264 263.918 214.264L267.818 216.76L267.35 226.588C267.35 231.372 269.794 236.208 274.682 241.096H276.71C282.43 241.096 286.642 230.176 289.346 208.336L289.658 199.288C289.554 188.784 289.138 182.076 288.41 179.164C284.25 182.804 280.974 184.624 278.582 184.624C273.278 184.624 268.546 170.428 264.386 142.036L263.918 141.724C263.918 139.332 265.686 137.824 269.222 137.2Z" fill="#E0E7FF"/>
<rect x="144" y="29" width="39" height="39" rx="19.5" fill="white"/>
</svg>
